<?xml version="1.0" encoding="UTF-8"?> <svg xmlns="http://www.w3.org/2000/svg" width="109" height="126" viewBox="0 0 109 126" fill="none"> <g clip-path="url(#clip0_1824_2254)"> <path d="M68.2046 119.974L106.005 103.676L106.278 95.3218C103.265 94.2262 100.252 93.9522 97.1024 93.9522C82.0372 93.6783 69.5742 105.32 68.2046 119.974Z" fill="#216CB4"></path> <path d="M51.3589 124.63L54.3719 126L62.5893 122.439C62.5893 112.989 66.4241 104.224 72.5871 98.0608C78.8871 91.7608 87.5154 88.063 97.1024 88.063C100.389 88.063 103.402 88.6108 106.278 89.4325L106.552 78.0651C103.539 77.5173 100.252 76.9695 97.1024 76.9695C84.3654 76.9695 72.861 82.1738 64.7806 90.2543C56.4263 98.6086 51.4958 110.113 51.4958 122.576C51.085 123.261 51.085 124.083 51.3589 124.63Z" fill="#3581BF"></path> <path d="M34.7866 117.646L45.8801 122.576C45.8801 108.47 51.6323 95.7327 60.8084 86.4197C69.9845 77.2436 82.8584 71.4914 97.2388 71.4914C100.526 71.4914 103.813 71.7653 106.963 72.3131L107.237 60.9458C104.087 60.261 100.8 59.9871 97.2388 59.9871C79.8453 59.9871 64.3692 67.1088 53.0018 78.2023C42.5931 88.474 35.8823 102.444 34.7866 117.646Z" fill="#6797CE"></path> <path d="M18.2153 110.524L29.0349 115.18C32.8697 80.9413 61.6306 54.0979 96.9653 54.0979C100.526 54.0979 103.813 54.3718 107.237 54.9196L107.511 43.5522C103.95 43.0044 100.389 42.7305 96.9653 42.7305C57.111 42.8674 24.2414 72.1761 18.2153 110.524Z" fill="#97B3DD"></path> <path d="M1.91748 77.6542L2.19139 89.0216C5.20444 88.1999 8.21748 87.652 11.3675 87.652C14.1066 87.652 16.8457 87.926 19.311 88.4738C20.9544 84.9129 22.5979 81.352 24.7892 78.2021C20.6805 76.8325 16.161 76.2847 11.5044 76.2847C8.35444 76.5586 5.20444 77.1064 1.91748 77.6542Z" fill="#28A85E"></path> <path d="M2.46484 95.3217L2.73876 103.676L13.5583 108.606C14.3801 103.676 15.7496 98.8826 17.3931 94.5C15.4757 94.226 13.5583 93.9521 11.6409 93.9521C8.35397 93.6782 5.47789 94.226 2.46484 95.3217Z" fill="#249842"></path> <path d="M1.64355 60.8086L1.91747 72.176C5.20442 71.6282 8.49138 71.3542 11.6414 71.3542C17.3936 71.3542 22.7349 72.176 27.9392 74.0934C30.1305 70.8064 32.8696 67.7934 35.6088 64.9173C28.2131 61.9043 20.1327 60.2608 11.6414 60.2608C8.21747 59.9869 4.93051 60.2608 1.64355 60.8086Z" fill="#5EB980"></path> <path d="M1.0957 43.4153L1.36962 54.9197C4.65657 54.3718 8.21744 54.0979 11.6414 54.0979C21.6392 54.0979 31.2261 56.2892 39.8544 60.3979C42.8674 57.6588 46.1544 54.9197 49.5783 52.7284C38.2109 46.4284 25.337 43.0044 11.5044 43.0044C8.21744 42.8675 4.65657 43.1414 1.0957 43.4153Z" fill="#93CBA2"></path> <path d="M37.2522 0H14.3804C12.737 1.36957 11.0935 2.73913 9.45001 4.38261C5.88914 7.94348 2.8761 11.7783 0.273926 16.0239L0.821752 38.8957C1.64349 38.8957 2.46523 38.6217 3.28697 38.6217C5.20436 28.6239 10.4087 19.3109 17.3935 12.3261C23.1457 6.84783 29.5826 2.46522 37.2522 0ZM107.648 38.8957L108.196 17.6674C105.457 12.737 101.896 8.21739 98.1978 4.38261C96.4174 2.73913 95.0478 1.36957 93.1304 0H70.3957C77.7913 2.46522 84.5022 6.84783 89.9804 12.1891C97.1022 19.3109 101.896 28.213 104.087 38.2109C105.457 38.6217 106.552 38.6217 107.648 38.8957Z" fill="#E7D572"></path> <path d="M53.8238 13.8325C44.3738 13.8325 35.6086 17.6673 29.3086 23.8303C25.1999 27.939 22.1869 32.7325 20.6804 38.2107C17.6673 37.9368 14.6543 37.6629 11.7782 37.6629C10.9565 37.6629 10.1347 37.6629 9.31299 37.6629C11.2304 29.3086 15.613 21.639 21.5021 15.6129C29.8565 7.25856 41.3608 2.32812 53.8238 2.32812C66.5608 2.32812 78.0651 7.53247 86.1456 15.6129C92.1717 21.639 96.4173 29.1716 98.3347 37.6629C97.7869 37.6629 97.2391 37.6629 96.9651 37.6629C93.4043 37.6629 90.1173 37.9368 86.9673 38.2107C85.3238 32.4586 82.3108 27.6651 78.3391 23.5564C72.0391 17.6673 63.2738 13.8325 53.8238 13.8325Z" fill="#DECA41"></path> <path d="M53.8239 19.5847C41.087 19.5847 30.1304 27.6651 26.4326 39.4434C36.7044 41.3608 45.1957 44.6478 54.3717 49.7152C62.5891 44.7847 71.4913 41.6347 81.2152 39.7173C77.3804 27.9391 66.5609 19.5847 53.8239 19.5847Z" fill="#D7C125"></path> <path d="M5.75217 0H0L0.273913 6.3C1.91739 3.83478 3.83478 1.91739 5.75217 0ZM108.333 7.39565L108.607 0H101.759L102.033 0.273913C104.361 2.46522 106.552 4.93044 108.333 7.39565Z" fill="#F0E8B3"></path> </g> <defs> <clipPath id="clip0_1824_2254"> <rect width="108.607" height="126" fill="white"></rect> </clipPath> </defs> </svg> 