<?xml version="1.0" encoding="UTF-8"?> <svg xmlns="http://www.w3.org/2000/svg" width="42" height="42" viewBox="0 0 42 42" fill="none"> <rect x="0.5" y="0.5" width="41" height="41" rx="8.5" fill="white" stroke="#4B69FF"></rect> <path d="M33.0663 15.8689L20.7904 7.68495C20.6397 7.58451 20.4436 7.58451 20.2929 7.68495L8.01708 15.8689C7.89242 15.952 7.81738 16.0922 7.81738 16.2419C7.81738 16.3917 7.89212 16.5319 8.01708 16.615L9.8816 17.858V24.4088C9.8816 24.5616 9.95932 24.7039 10.0879 24.7864L20.3713 31.379C20.4451 31.4262 20.5291 31.4499 20.6134 31.4499C20.7016 31.4499 20.7901 31.4239 20.866 31.3718L26.2312 27.7116V30.2639L24.2324 34.2614C24.1631 34.4004 24.1706 34.5658 24.2519 34.6979C24.3335 34.8297 24.4782 34.9104 24.6333 34.9104H28.7256C28.881 34.9104 29.0254 34.8297 29.107 34.6979C29.1883 34.5658 29.1961 34.4004 29.1265 34.2614L27.1277 30.2639V27.0996L30.5288 24.7792C30.6511 24.6958 30.7243 24.5571 30.7243 24.4088V18.1761L33.066 16.615C33.1906 16.5319 33.2657 16.3917 33.2657 16.2419C33.2657 16.0922 33.1909 15.952 33.0663 15.8689ZM25.3592 34.0136L26.6796 31.3727L28 34.0136H25.3592ZM20.6056 30.4639L10.7784 24.1637V18.4559L20.2929 24.7992C20.3683 24.8495 20.455 24.8746 20.5417 24.8746C20.6284 24.8746 20.7151 24.8495 20.7904 24.7992L26.2312 21.1718V26.6258L20.6056 30.4639ZM29.8278 24.1721L27.128 26.0141V20.574L29.8278 18.774V24.1721ZM30.1205 17.5011C30.0544 17.5256 29.9961 17.5648 29.9489 17.6156L26.6796 19.7952L20.7904 15.8689C20.5838 15.7313 20.3058 15.7873 20.1686 15.9932C20.0314 16.1992 20.087 16.4778 20.2929 16.615L25.8713 20.3339L20.5417 23.8872L9.07415 16.2419L20.5417 8.59703L32.0092 16.2419L30.1205 17.5011Z" fill="#4B69FF"></path> </svg> 