<?xml version="1.0" encoding="UTF-8"?> <svg xmlns="http://www.w3.org/2000/svg" width="42" height="42" viewBox="0 0 42 42" fill="none"> <rect x="0.5" y="0.5" width="41" height="41" rx="8.5" fill="white" stroke="#4B69FF"></rect> <path d="M12.0956 11.7668L15.5617 13.2907C14.8745 14.3067 14.5159 15.472 14.5159 16.6971C14.5159 20.0437 17.235 22.7927 20.6115 22.7927C23.988 22.7927 26.7071 20.0736 26.7071 16.6971C26.7071 15.5019 26.3486 14.3067 25.6912 13.3206L28.739 11.8864V17.6832L27.8127 19.6553C27.753 19.8047 27.753 19.9541 27.8426 20.0736C27.9322 20.1931 28.0816 20.2828 28.231 20.2828H29.994C30.1434 20.2828 30.2928 20.223 30.3526 20.0736C30.4422 19.9541 30.4422 19.8047 30.3824 19.6553L29.5757 17.6832V11.4979C29.5757 11.2589 29.5458 11.0796 29.1275 10.9003C29.0378 10.8704 20.8207 7.225 20.8207 7.225C20.7012 7.16524 20.5816 7.16524 20.4621 7.225L12.0956 10.9302C11.9462 10.9899 11.8267 11.1692 11.8267 11.3485C11.8267 11.5278 11.9163 11.6772 12.0956 11.7668ZM25.7808 16.6971C25.7808 19.5656 23.4502 21.8963 20.5816 21.8963C17.7131 21.8963 15.3824 19.5656 15.3824 16.6971C15.3824 15.5915 15.741 14.5457 16.3685 13.6493L20.4322 15.472C20.492 15.5019 20.5518 15.5019 20.6115 15.5019C20.6713 15.5019 20.731 15.5019 20.7908 15.472L24.7948 13.6792C25.4522 14.5756 25.7808 15.6214 25.7808 16.6971ZM28.9183 19.3863L29.1275 18.9381L29.3067 19.3863H28.9183ZM20.6414 8.12141L27.9024 11.3485L20.6414 14.5756L13.3804 11.3485L20.6414 8.12141Z" fill="#4B69FF"></path> <path d="M20.761 23.8684C14.9343 23.8684 10.1833 28.6194 10.1833 34.4461C10.1833 34.6851 10.3925 34.8943 10.6316 34.8943H30.8905C31.1296 34.8943 31.3387 34.6851 31.3387 34.4461C31.3387 28.6194 26.5877 23.8684 20.761 23.8684ZM11.1096 33.9979C11.3487 28.8584 15.5917 24.7648 20.7909 24.7648C25.9901 24.7648 30.2033 28.8883 30.4423 33.9979H11.1096Z" fill="#4B69FF"></path> </svg> 