<?xml version="1.0" encoding="UTF-8"?> <svg xmlns="http://www.w3.org/2000/svg" width="42" height="42" viewBox="0 0 42 42" fill="none"> <rect x="0.5" y="0.5" width="41" height="41" rx="8.5" fill="white" stroke="#4B69FF"></rect> <path d="M28.5002 32.4267H8.41105C8.64539 27.1565 13.0059 22.9407 18.332 22.9407C19.9858 22.9407 21.623 23.3552 23.0665 24.1392C23.283 24.2568 23.5543 24.177 23.6722 23.9597C23.7901 23.7429 23.7097 23.4716 23.4926 23.354C21.9183 22.4991 20.1338 22.0471 18.3317 22.0471C12.3633 22.0471 7.50732 26.9037 7.50732 32.873C7.50732 33.1196 7.70742 33.3197 7.95397 33.3197H28.4996C28.7461 33.3197 28.9462 33.1196 28.9462 32.873C28.9462 32.6265 28.747 32.4267 28.5002 32.4267Z" fill="#4B69FF"></path> <path d="M18.1511 20.9097C21.5853 20.9097 24.3792 18.1163 24.3792 14.6831C24.3792 11.2498 21.5853 8.45679 18.1511 8.45679C14.7179 8.45679 11.9248 11.2498 11.9248 14.6831C11.9248 18.1163 14.7176 20.9097 18.1511 20.9097ZM18.1511 9.34979C21.0927 9.34979 23.4859 11.742 23.4859 14.6828C23.4859 17.6235 21.0927 20.0161 18.1511 20.0161C15.2104 20.0161 12.8181 17.6235 12.8181 14.6828C12.8181 11.742 15.2104 9.34979 18.1511 9.34979Z" fill="#4B69FF"></path> <path d="M32.541 25.3657C32.5368 25.3657 32.5329 25.3657 32.5285 25.366C32.5136 25.3648 31.2561 25.3845 30.6496 23.9591C30.4867 23.5761 30.4265 23.1462 30.4048 22.9133C30.791 22.461 31.0015 21.8929 31.0015 21.292C31.0015 19.9127 29.8792 18.791 28.5003 18.791C27.1213 18.791 25.9993 19.913 25.9993 21.292C25.9993 21.8845 26.2042 22.4461 26.5809 22.8954C26.5478 23.1858 26.4686 23.6628 26.3191 23.9996C25.6894 25.4202 24.5397 25.3669 24.4941 25.3672C24.4825 25.3663 24.4709 25.3657 24.4593 25.3657C23.507 25.3657 22.7319 26.1408 22.7319 27.0933V28.3434C22.7319 28.5899 22.932 28.79 23.1786 28.79H23.3063L23.315 30.7193C23.3162 30.9649 23.5157 31.1638 23.7616 31.1638H33.2854C33.5319 31.1638 33.732 30.9637 33.732 30.7172V28.79H33.8223C34.0688 28.79 34.2689 28.5899 34.2689 28.3434V27.0933C34.2689 26.1408 33.4935 25.3657 32.541 25.3657ZM23.6249 27.0933C23.6249 26.6369 23.9933 26.265 24.4483 26.259C24.6755 26.2712 26.2882 26.273 27.1353 24.3619C27.4268 23.7057 27.4867 22.8067 27.4891 22.7686C27.4971 22.6411 27.45 22.5161 27.3601 22.4256C27.0582 22.1218 26.8923 21.7196 26.8923 21.292C26.8923 20.4052 27.6135 19.6843 28.5 19.6843C29.3864 19.6843 30.1079 20.4055 30.1079 21.292C30.1079 21.7237 29.9388 22.1293 29.6315 22.4339C29.5442 22.5202 29.4966 22.6388 29.4993 22.7617C29.5002 22.7951 29.5219 23.591 29.8277 24.3086C30.6484 26.2376 32.384 26.2542 32.5439 26.259C33.0025 26.2608 33.3753 26.6345 33.3753 27.0933V27.8967H33.3688C33.3417 27.8917 33.3137 27.8884 33.2851 27.8884C33.2565 27.8884 33.2285 27.8917 33.2014 27.8967H23.6249V27.0933ZM32.8387 30.2705H24.2062L24.1996 28.79H32.8387V30.2705Z" fill="#4B69FF"></path> </svg> 