<?xml version="1.0" encoding="UTF-8"?> <svg xmlns="http://www.w3.org/2000/svg" width="42" height="42" viewBox="0 0 42 42" fill="none"> <rect x="0.5" y="0.5" width="41" height="41" rx="8.5" fill="white" stroke="#4B69FF"></rect> <path d="M11.4253 27.0527C11.4253 28.551 12.6444 29.7704 14.143 29.7704C15.6417 29.7704 16.8607 28.551 16.8607 27.0527C16.8607 25.5543 15.6417 24.335 14.143 24.335C12.6444 24.335 11.4253 25.554 11.4253 27.0527ZM15.9674 27.0527C15.9674 28.0585 15.1489 28.8771 14.143 28.8771C13.1372 28.8771 12.3186 28.0585 12.3186 27.0527C12.3186 26.0468 13.1372 25.2283 14.143 25.2283C15.1489 25.2283 15.9674 26.0468 15.9674 27.0527Z" fill="#4B69FF"></path> <path d="M32.8641 16.9037C32.6801 16.7396 32.3981 16.7554 32.2334 16.9394L25.746 24.2058L22.4062 20.866C22.2317 20.6916 21.9492 20.6916 21.7747 20.866C21.6002 21.0405 21.6002 21.3231 21.7747 21.4976L25.4488 25.1715C25.5328 25.2554 25.6462 25.3022 25.7647 25.3022C25.7689 25.3022 25.7731 25.3022 25.7772 25.3019C25.8999 25.2983 26.0161 25.2447 26.0979 25.153L32.9001 17.534C33.0642 17.3503 33.0481 17.0677 32.8641 16.9037Z" fill="#4B69FF"></path> <path d="M25.9187 26.419C25.6719 26.419 25.4721 26.6191 25.4721 26.8657V31.3105H9.65648V10.4668H25.4721V19.8247C25.4721 20.0713 25.6719 20.2714 25.9187 20.2714C26.1656 20.2714 26.3654 20.0713 26.3654 19.8247V10.0201C26.3654 9.77359 26.1656 9.57349 25.9187 9.57349H9.20983C8.96299 9.57349 8.76318 9.77359 8.76318 10.0201V31.7571C8.76318 32.0037 8.96299 32.2038 9.20983 32.2038H25.9187C26.1656 32.2038 26.3654 32.0037 26.3654 31.7571V26.8657C26.3654 26.6191 26.1656 26.419 25.9187 26.419Z" fill="#4B69FF"></path> <path d="M20.6977 15.5959C20.9446 15.5959 21.1444 15.3958 21.1444 15.1493C21.1444 14.9027 20.9446 14.7026 20.6977 14.7026H11.7242C11.4774 14.7026 11.2776 14.9027 11.2776 15.1493C11.2776 15.3958 11.4774 15.5959 11.7242 15.5959H20.6977Z" fill="#4B69FF"></path> <path d="M21.2543 19.1227C21.2543 18.8761 21.0545 18.676 20.8077 18.676H11.8365C11.5897 18.676 11.3899 18.8761 11.3899 19.1227C11.3899 19.3692 11.5897 19.5693 11.8365 19.5693H20.8077C21.0545 19.5693 21.2543 19.3692 21.2543 19.1227Z" fill="#4B69FF"></path> </svg> 