<?xml version="1.0" encoding="UTF-8"?> <svg xmlns="http://www.w3.org/2000/svg" width="42" height="42" viewBox="0 0 42 42" fill="none"> <rect x="0.5" y="0.5" width="41" height="41" rx="8.5" fill="white" stroke="#4B69FF"></rect> <path d="M21.086 23.2595C15.2562 23.2595 10.5132 28.0029 10.5132 33.8335C10.5132 34.081 10.7138 34.2819 10.9616 34.2819H31.2103C31.4579 34.2819 31.6587 34.081 31.6587 33.8335C31.6587 28.0029 26.916 23.2595 21.086 23.2595ZM11.4202 33.3851C11.6552 28.2564 15.9008 24.1564 21.086 24.1564C26.2712 24.1564 30.5171 28.2564 30.7517 33.3851H11.4202Z" fill="#4B69FF"></path> <path d="M20.9102 9.99951C17.5536 9.99951 14.8228 12.7304 14.8228 16.0869C14.8228 19.4435 17.5536 22.1743 20.9102 22.1743C24.267 22.1743 26.9976 19.4435 26.9976 16.0869C26.9976 12.7304 24.2667 9.99951 20.9102 9.99951ZM20.9102 21.2775C18.0481 21.2775 15.7196 18.949 15.7196 16.0869C15.7196 13.2248 18.0481 10.8963 20.9102 10.8963C23.7723 10.8963 26.1007 13.2248 26.1007 16.0869C26.1007 18.949 23.7723 21.2775 20.9102 21.2775Z" fill="#4B69FF"></path> <path d="M13.5147 19.4194C13.7625 19.4194 13.9631 19.2188 13.9631 18.971V13.1678C13.9631 13.1391 13.9598 13.1113 13.9547 13.0841C15.1562 10.2983 17.8571 8.50908 20.9103 8.50908C24.0181 8.50908 26.7642 10.3631 27.9313 13.2372V18.9372C27.5552 19.8633 27.009 20.6962 26.302 21.4124C26.128 21.5888 26.1298 21.8725 26.3062 22.0465C26.3935 22.1329 26.5074 22.1759 26.6213 22.1759C26.737 22.1759 26.8527 22.1314 26.9403 22.0426C27.6936 21.2794 28.284 20.3972 28.702 19.4197H29.017C30.8642 19.4197 32.367 17.9169 32.367 16.0697C32.367 14.2225 30.8642 12.7197 29.017 12.7197H28.6828C27.3367 9.6098 24.3194 7.61255 20.9103 7.61255C17.4993 7.61255 14.4818 9.6095 13.1362 12.7197H12.8773C11.0301 12.7197 9.52734 14.2225 9.52734 16.0697C9.52734 17.9169 11.0301 19.4197 12.8773 19.4197L13.5147 19.4194ZM31.4702 16.0694C31.4702 17.4221 30.3695 18.5225 29.017 18.5225H28.8281V13.6163H29.017C30.3698 13.6163 31.4702 14.7167 31.4702 16.0694ZM10.4242 16.0694C10.4242 14.7167 11.5246 13.6163 12.8773 13.6163H13.0663V18.5225H12.8773C11.5246 18.5225 10.4242 17.4221 10.4242 16.0694Z" fill="#4B69FF"></path> </svg> 