<?xml version="1.0" encoding="UTF-8"?> <svg xmlns="http://www.w3.org/2000/svg" width="42" height="42" viewBox="0 0 42 42" fill="none"> <rect x="0.5" y="0.5" width="41" height="41" rx="8.5" fill="white" stroke="#4B69FF"></rect> <path d="M29.6354 9.01792H24.8844V6.98605C24.8844 6.74701 24.6752 6.53784 24.4362 6.53784H17.3545C17.1155 6.53784 16.9063 6.74701 16.9063 6.98605V9.01792H11.8864C10.8406 9.01792 10.0039 9.85457 10.0039 10.9004V33.4303C10.0039 34.4761 10.8406 35.3127 11.8864 35.3127H29.6653C30.7111 35.3127 31.5477 34.4761 31.5477 33.4303V10.9004C31.5178 9.85457 30.6812 9.01792 29.6354 9.01792ZM17.3545 14.8147H24.4362C24.6752 14.8147 24.8844 14.6056 24.8844 14.3665V12.4243H28.0218V31.757H13.4999V12.4542H16.9063V14.3665C16.9063 14.6355 17.1155 14.8147 17.3545 14.8147ZM23.988 7.43426V11.9761V13.9183H17.8027V11.9761V9.43625V7.43426H23.988ZM30.6214 33.4004C30.6214 33.9382 30.1732 34.3864 29.6354 34.3864H11.8864C11.3485 34.3864 10.9003 33.9382 10.9003 33.4004V10.9004C10.9003 10.3625 11.3485 9.91434 11.8864 9.91434H16.9063V11.5578H13.0517C12.8127 11.5578 12.6035 11.7669 12.6035 12.006V32.2351C12.6035 32.4741 12.8127 32.6833 13.0517 32.6833H28.47C28.7091 32.6833 28.9182 32.4741 28.9182 32.2351V12.006C28.9182 11.7669 28.7091 11.5578 28.47 11.5578H24.8844V9.91434H29.6354C30.1732 9.91434 30.6214 10.3625 30.6214 10.9004V33.4004Z" fill="#4B69FF"></path> <path d="M14.6055 19.8645C14.6055 20.1035 14.8146 20.3127 15.0537 20.3127H26.5577C26.7967 20.3127 27.0059 20.1035 27.0059 19.8645C27.0059 19.6254 26.7967 19.4163 26.5577 19.4163H15.0537C14.8146 19.4163 14.6055 19.6254 14.6055 19.8645Z" fill="#4B69FF"></path> <path d="M26.5577 22.5537H15.0537C14.8146 22.5537 14.6055 22.7629 14.6055 23.0019C14.6055 23.241 14.8146 23.4501 15.0537 23.4501H26.5577C26.7967 23.4501 27.0059 23.241 27.0059 23.0019C27.0059 22.7629 26.7967 22.5537 26.5577 22.5537Z" fill="#4B69FF"></path> <path d="M26.5577 25.8406H15.0537C14.8146 25.8406 14.6055 26.0497 14.6055 26.2888C14.6055 26.5278 14.8146 26.737 15.0537 26.737H26.5577C26.7967 26.737 27.0059 26.5278 27.0059 26.2888C27.0059 26.0497 26.7967 25.8406 26.5577 25.8406Z" fill="#4B69FF"></path> </svg> 