<?xml version="1.0" encoding="UTF-8"?> <svg xmlns="http://www.w3.org/2000/svg" id="Режим_изоляции" x="0" y="0" viewBox="0 0 34.8 38.8" xml:space="preserve"> <style>.st0{fill:#13377d}</style> <switch> <g> <path class="st0" d="M27.3 28.9c-.1 0-.2.1-.2.2s.1.2.2.2.2-.1.2-.2c0 0-.1-.2-.2-.2zM28 30.9c0 .1.1.2.2.2s.2-.1.2-.2-.1-.2-.2-.2c-.2 0-.2.1-.2.2zM27.3 30.7c-.1 0-.2.1-.2.2s.1.2.2.2.2-.1.2-.2-.1-.2-.2-.2zM28.9 30.9c0 .1.1.2.2.2s.2-.1.2-.2-.1-.2-.2-.2c-.2 0-.2.1-.2.2zM27 27v.5l-.4-.1v.6l.4-.1v.6h.6l-.1-.6.5.1v-.6l-.5.1.1-.5zM27.6 28.8v1.8h1.7c0-.9-.8-1.7-1.7-1.8zM27.3 29.8c-.1 0-.2.1-.2.2s.1.2.2.2.2-.1.2-.2-.1-.2-.2-.2zM28 32.1s-.2.4 0 .8c.1.2.2.2.4.2s.2-.2.2-.3c-.1-.3-.4-.7-.6-.7zM26.5 32.1c-.2 0-.5.3-.5.7 0 .1 0 .2.2.3.2 0 .3 0 .4-.2.1-.3 0-.8-.1-.8zM27.3 31.9c-.2 0-.6.9-.3 1.4.1.1.2.1.3.1.1 0 .2 0 .3-.1.3-.5-.2-1.4-.3-1.4z"></path> <path class="st0" d="M25.1 30.9v-.4h1.7v-1.9c-.8.2-1.5.8-1.7 1.7 0 .1-.2.1-.3.1-.6-.1-1.9-.3-1.9-.6 0-.4.3-.6.5-.6.4 0 .8.2 1.1-.3-1.2 0-.3-1.7-1.3-2 0 .4 0 1.2-.2 1.6 0 0-.4-.4-.7-.5 0 .3 0 1-.2 1.3 0 0-.4-.4-.8-.5.4.6.4 1.4.3 1.9 0 .2.1.3.4.3.5 0 2.1 0 2.8.3.2.1.4.2.5.4.1.2.2.5.5.7.1-.4.5-.8.8-.7.1 0 .2.2.2.3 0-.1.2-.5.4-.5s.4.3.5.5c0-.2.1-.3.2-.3.3 0 .6.2.8.7.1-.1.6-.8.6-1.2h-4.2v-.3z"></path> <path class="st0" d="M26.2 30.9c0 .1.1.2.2.2s.2-.1.2-.2-.1-.2-.2-.2-.2.1-.2.2zM25.3 30.9c0 .1.1.2.2.2s.2-.1.2-.2-.1-.2-.2-.2-.2.1-.2.2zM8.6 31.8c-.1.1-.2.5-.2.8 0 .1.1.2.2.2s.2-.1.2-.2c.1-.3-.1-.7-.2-.8zM10.1 33.1l-.2.2s.2.1.3.1c.1 0 .2 0 .2-.1.1-.2 0-.4 0-.5l-.3.3zM9.5 32.5c.2-.2.2-.3.2-.4 0-.1-.4-.5-.8-.9v.2c.3.4.4.8.3 1.2h.1c0 .1.1 0 .2-.1zM10.1 32.5v-.2l-.1.1-.2.2-.2.2c-.1 0-.1.1-.1.2h.1c.1 0 .2 0 .4-.2.1-.1.1-.2.1-.3zM7.4 30.4l-.1.1h.3v-.3c-.1.1-.1.2-.2.2z"></path> <path class="st0" d="M8.5 30.5s.8.7 1.1 1c.1.1.2.1.2 0 0 0 .1 0 .2-.1.8-.3 2.2-.3 2.7-.3.3 0 .4-.2.4-.3-.1-.5-.1-1.3.3-1.9-.4.2-.8.5-.8.5-.2-.3-.2-1-.2-1.3-.4.1-.7.5-.7.5-.2-.4-.2-1.2-.2-1.6-1 .3-.1 2.1-1.3 2 .3.5.7.3 1.1.3.2 0 .6.2.5.6 0 .3-1.6.6-2.3.6-.4 0-.8-.1-1-.4-.1-.2-.2-.2-.3-.2 0 0-.2.1-.2.5 0 .2.1.8.4.8.2.1.2-.4.1-.7zM6.9 30.3H7c-.1.2-.1.3-.1.3.1.1.1-.1.3-.3s.4-.3.3-.3c0 0-.2 0-.3.1V30c-.1-.2-.4-.4-.6-.4h-.1c.1-.1 0-.2 0-.3 0 0-.1 0-.2.1v-.2c-.2-.4-1.6-1.7-1.9-1.8-.2-.1-.2 0-.2 0s-.1.1 0 .2c.1.3 1.5 1.7 1.8 1.9.1 0 .2.1.2 0-.1.1-.1.1 0 .2 0 0 .1.1.2 0v.1c.1.1.3.4.5.5zM7.9 31.2c0-.1-.2-.4-.6-.4-.4 0-.6.3-.6.4 0 .3.3.3.4.3.2.2.7-.2.8-.3zM7.5 31.9c-.1.2-.2.3-.1.4 0 .2.2.2.4.2s.3-.1.4-.2c.2-.3.2-.9.1-.9-.2.1-.6.3-.8.5zM3.5 25.6c-.1-.1-.4.1-.6 0 .1-.4.4 0 .6-.2.1-.1 0-.3 0-.3-.1.1-.3.1-.3 0 .3-.7-.3-1.5-.8-1.4.1.2.2.7.1.8.2.2.1.5-.2.4-.2-.1-.4-.5-.1-.7 0-.2-.2-.2-.4 0 .1-.4-.7-.3-.9-.2-.1.2-.2 1.1.2.9-.2.2-.1.4-.1.4.3-.3.6-.1.7.1.1.2-.2.4-.4.2-.1 0-.6 0-.8-.1-.1.6.7 1.2 1.4.8.1 0 .1.2 0 .3 0 .1.2.1.3 0 .3-.3-.1-.6.2-.6.1.2-.1.4 0 .6.2.2.4-.2.7-.2.2-.3.6-.6.4-.8zm-2.1-.9s-.1-.1 0-.3c.2-.2.2 0 .2 0s.2.3.2.5c-.1 0-.4-.2-.4-.2zm1.3 1c-.1 0-.3.2-.4.1l-.4-.4.2-.2.2-.2.4.4c.2 0 0 .2 0 .3zM3.6 26.4h-.1v.2c0 .1.1.2.2.2 0 .1.2.2.2.2H4c.1-.1 0-.3-.1-.4-.1-.1-.2-.2-.3-.2z"></path> <path class="st0" d="M2.3 25.1l-.1.1-.1.1s.2.3.4.2c.2-.2-.2-.4-.2-.4zM25.9 23.9c0 .1-.3.2-.6-.2-.2 0-.5-.1-.6-.2.3.6.5 1.1.9 1.3.6.4 1.5.3 1.8-.1-.5-.3-1.1-1-1.5-1.7l-.3.6c.2.1.3.2.3.3zM31.6 15c.6-.3 1.6-.9 2-1.3 0 .1.2.4-.3.8-.4.3-1.1.6-1.6.8-.2.4-.7.8-1.4 1.2 1.3-.2 2.8-.7 3.6-1.5 1.4-1.4.7-3.1.5-3.5-.9 1.2-2.7 2.4-4.4 3 .6.3 1.2.4 1.6.5zM30.5 12.5c.8-.7 1.7-2.1 1.9-2.5.2.1.3.5 0 1-.4.8-1.3 1.5-1.9 2 0 .5-.2 1.1-.5 1.5 1-.7 2.2-1.7 2.7-2.4.7-.9 1-1.8.8-2.7 0-1-.7-2-1-2.3-.2 1.1-1.3 3-2.3 4 .2.4.3.9.3 1.4zM29.9 18.8c.2.2.4.5.6.8.8.2 1.7.1 1.7.1s0 .4-.6.4c-.2 0-1-.1-1.3-.2-.1 0-.7.2-1.3.3.8.3 2 .6 2.7.6h.2c1.2-.1 1.8-1.2 1.8-1.8-.4.1-1 .1-1.6.1-.5 0-1.5 0-2.2-.3zM34.8 15.8c-1.1.6-2.9 1.1-4.4 1.1.4.2.7.5 1 .7.6 0 1.5-.2 1.9-.4 0 .1 0 .5-.6.6-.4.1-1 .1-1.4.1-.4.2-.9.4-1.3.6.4 0 .9.1 1.4.1.8 0 1.5-.1 1.9-.2.4-.1 1.7-.7 1.5-2.6zM29.1 21.3c.4.2.9.4 1.3.4 0 0-.1.4-.7.3-.4 0-.8-.3-.8-.4h-1.1c.7.5 1.7 1.1 2.6 1.1h.1c.9 0 1.7-.9 1.9-1.4-.9 0-2.5-.4-3.5-.9.1.3.2.6.2.9zM27.5 22.6c.2.3.6.4.6.4s-.1.2-.4.2c-.1 0-.2 0-.2-.1-.2-.1-.4-.4-.4-.4-.3 0-.6-.1-.9-.2.5.6 1.3 1.4 2.2 1.6h.4c.8 0 1.4-.6 1.6-.9-.9-.1-2.2-.8-2.8-1.5 0 .4-.1.7-.1.9zM21.7 32.5c.4 0 .7-.2.9-.6-.6.3-1.3.1-2.5-.2 0 0-.4.2-.7.2.7.2 1.8.6 1.9 1 .1.3-.1.4-.1.4-.4-.5-.9-.8-1.9-1.1v.3h-.7c.4.3 1.4 1.2 1.5 2.1.1.6-.4.6-.4.6 0-.9-.4-1.5-1.3-2.4l-.3.3s-.3 0-.6-.2c.1 1.2.2 4.1.1 4.6 0 .3-.2.5-.2.5s-.2-.1-.2-.5c-.1-.5 0-3.4.1-4.6-.3.2-.6.2-.6.2-.2-.1-.3-.3-.3-.3-.8.9-1.3 1.5-1.3 2.4 0 0-.4 0-.4-.6.1-.9 1.1-1.7 1.5-2.1-.4.1-.7 0-.7 0v-.3c-1.1.3-1.5.6-1.9 1.1 0 0-.2 0-.1-.4.2-.4 1.2-.7 1.9-1-.2 0-.7-.2-.7-.2-1.2.4-1.9.5-2.5.2.2.4.5.6.9.6-.6.2-1.1.8-1.3 1.3.4 1.5 1.7 1.9 1.7 1.9-.3-.7-.2-2.1 1.7-3.1-1.2 1.2-1.7 2.3-1.3 3.3.3.9 1.3 1.3 1.9 1.3-.5-1.5-.3-3 .8-4-.4 1.2-1.1 5 .7 5.6 1.8-.6 1.2-4.4.7-5.6 1.1 1.1 1.3 2.5.8 4 .7 0 1.7-.4 1.9-1.3.3-1-.1-2.1-1.3-3.3 1.9 1 2.1 2.4 1.7 3.1 0 0 1.3-.4 1.7-1.9 0-.5-.6-1.1-1.1-1.3zM9.2 24.8c.4-.2.6-.7.9-1.3-.2.1-.4.2-.6.2-.2.4-.6.3-.6.2.1-.1.1-.2.2-.3-.1-.2-.2-.5-.3-.6-.3.7-1 1.4-1.5 1.7.3.4 1.3.4 1.9.1zM4.5 16.6c-.7-.4-1.1-.8-1.4-1.2-.6-.2-1.3-.6-1.6-.8-.5-.4-.3-.8-.3-.8.4.4 1.3 1.1 2 1.3.4-.2 1-.3 1.5-.4-1.7-.6-3.4-1.9-4.4-3-.2.4-1 2.1.5 3.5.8.7 2.4 1.2 3.7 1.4zM4.8 14.4c-.2-.4-.4-1-.5-1.5-.7-.5-1.5-1.2-1.9-2-.2-.4-.2-.8 0-1 .2.5 1.1 1.9 1.9 2.5 0-.4.1-1 .2-1.3-1-1.1-2.1-2.9-2.3-4-.3.2-1 1.3-1 2.3-.1.9.2 1.8.8 2.7.6.6 1.7 1.6 2.8 2.3zM4.4 19.6c.1-.2.4-.5.6-.8-.8.2-1.8.2-2.3.2-.7.1-1.3 0-1.7 0 0 .6.6 1.7 1.8 1.8H3c.7 0 1.9-.3 2.7-.6-.6-.1-1.1-.2-1.3-.3-.3.2-1.1.3-1.3.2-.5 0-.6-.4-.6-.4s1.1.1 1.9-.1zM1.5 18.5c.4.2 1.1.2 1.9.2.5 0 1 0 1.4-.1-.4-.2-1-.4-1.3-.6-.4 0-1.1 0-1.4-.1-.6-.2-.6-.6-.6-.6.5.2 1.3.4 1.9.4.2-.2.6-.5 1-.7-1.5 0-3.4-.6-4.4-1.1-.2 1.8 1.1 2.4 1.5 2.6zM4.2 22.8h.1c.9-.1 1.9-.6 2.6-1.1H5.8c.1 0-.4.3-.7.3-.6.1-.7-.3-.7-.3.4 0 .9-.2 1.3-.4 0-.3.1-.6.2-.8-1 .6-2.6 1-3.6 1 .3.4 1 1.3 1.9 1.3zM6 24.3h.4c.8-.2 1.7-1 2.2-1.6-.3.1-.6.2-.9.2l-.4.4c-.1 0-.2.1-.2.1-.2 0-.4-.2-.4-.2s.4-.2.6-.4c0-.2-.1-.5-.1-.7-.7.7-1.9 1.3-2.8 1.5.2.1.8.7 1.6.7zM17 2.1c0 .2.2.3.3.3.2 0 .3-.2.3-.3 0-.2-.2-.3-.3-.3-.1 0-.3.1-.3.3zM17.2 1.4h.4V.8l.5.1V.5h-.5V0h-.4v.5h-.5v.4l.5-.1zM15.6 6.8H19.2c.1 0 .2-.1.2-.2h-4c0 .1.1.1.2.2zM19.1 6.3c.1 0 .1-.1 0 0V6h-3.5v.2h3.5zM19.5 5.7c.1-.1.5-1 .5-1.9 0-.8-1-1.3-1.6-1.3-.1 1.1-.5 2.9-1.1 2.9-.5 0-1-1.8-1.1-2.9-.6 0-1.6.4-1.6 1.3s.4 1.8.5 1.9h4.4z"></path> <path class="st0" d="M17.4 4.9c.3 0 .6-.8.7-1.7 0-.2-.3-.4-.7-.4-.4 0-.7.2-.7.4.1.8.4 1.7.7 1.7zM22.5 18.2c0-.1-.1-.2-.2-.2h-9.8c-.1 0-.2.1-.2.2V25s0 .4.2.8c.2.5 1.1 1.3 2.1 1.9 1.5.8 2.4 1.4 2.8 1.7.4-.4 1.3-1 2.8-1.7 1.1-.6 1.9-1.4 2.1-1.9.2-.4.2-.8.2-.8v-6.8zm-3.3 2.4c.1.5.2 1.1.3 1.5.4.3.8.6 1.1 1 .6-.7.9-1.3.9-1.9-.3 0-.5-.2-.5-.5 0-.1 0-.2.1-.3-.3-.1-.6-.2-.9-.2-.2 0-.5 0-.8.1h-.1c0-.1 0-.1.1-.2.8-.2 1.5-.1 1.9.2.1 0 .2-.1.2-.1.3 0 .5.2.5.5 0 .2-.1.4-.3.4 0 .6-.3 1.3-1 2.1l.1.1.1.1-.1.1v-.1s0-.1-.1-.1l-.2.2-.1.1c-.2.3-.4.4-.4.3l.5-.5c-.2-.3-.6-.6-.9-.8v1.6s-.1.1-.2.1v-.9-.4c0-.2 0-.8-.1-1.1 0-.3-.1-.6-.2-1l.1-.1v-.2zm-3.3-.7c.4-1 1-1.5 1.5-1.5s1.1.5 1.5 1.5c0 0-.1 0-.2.1-.4-.8-.8-1.3-1.3-1.3s-1 .5-1.3 1.3c-.1-.1-.2-.1-.2-.1zm-.2.2c.1.1.5.3.9.2.4-.1.8-.1.8-.1s.4 0 .8.1.8-.1.9-.2c0 .2-.2.6-.8.7-.6.1-.8.8-.9 1.1h-.1c-.1-.3-.4-.9-.9-1.1-.6-.1-.7-.6-.8-.7h.1zm1 1.6c.1 0 .2 0 .3-.1 0 .1.1.2.1.3-.1.1-.2.1-.4.1-.4 0-.8-.4-.8-.8 0-.1 0-.2.1-.3.1 0 .2.1.3.1v.2c-.1.3.1.5.4.5zm-.2-.4c0-.1 0-.1 0 0 .1 0 .2.1.3.2h-.1c-.1 0-.2-.1-.2-.2zm.2 1c.2 0 .4 0 .5-.2 0 0 .1.2.2.2s.1-.2.2-.2c.2.1.4.2.5.2.3 0 .5-.1.7-.3.1.3.1.7.1.9 0 .2-.1.3-.1.5-.1.2-.1.4-.1.4v.1c0 .2-.2.4-.3.7-.3-.2-.6-.3-1.1-.3-.4 0-.7.1-1 .2-.2-.2-.3-.4-.3-.5v-.1l-.2-.4c0-.1-.1-.3-.1-.4 0-.1 0-.5.1-.9v-.1c.3.1.6.2.9.2zm1.4-.6c.3 0 .5-.2.5-.5V21c.1 0 .2-.1.3-.1 0 .1.1.2.1.3 0 .4-.4.8-.8.8-.2 0-.3 0-.4-.1 0-.1.1-.2.1-.3 0 .1.1.1.2.1zm-.1-.3c.1-.1.2-.2.3-.2v.1c0 .1-.1.2-.2.2 0 0-.1 0-.1-.1zm-4.7-1.1c.1 0 .2 0 .3.1.3-.2.6-.2 1.1-.2.2 0 .5 0 .8.1 0 0 0 .1.1.2h-.1-.1c-.2 0-.5-.1-.7-.1-.3 0-.6 0-.9.2 0 .1.1.2.1.3 0 .3-.2.5-.5.5 0 .5.3 1.1.9 1.9.3-.3.7-.7 1.1-1 0-.5.2-1 .3-1.5l.1.1c-.1.3-.2.6-.2.9 0 .2-.1.6-.1.9v1.4h-.2v-.8-.8c-.3.3-.6.6-.9.8l.8.8h-.3l-.6-.6-.1.1s-.1 0-.2.1c.1-.1.2-.2.2-.3-.7-.8-1-1.5-1-2.1-.2-.1-.3-.2-.3-.4-.1-.4.1-.6.4-.6zm5.7 6.3c-.3.8-.7 1.4-1.1 1.6 0 .2-.2.4-.5.4s-.4-.2-.5-.4c-.4-.2-.8-.8-1.1-1.6l.2-.1c.2.7.6 1.2.9 1.4.1-.2.2-.4.5-.4.2 0 .4.2.5.3.4-.2.7-.7.9-1.4l.2.2zm-2-.1c0-.2 0-.6.1-.8.1 0 .2-.1.3-.1.1 0 .2 0 .4.1 0 .2.1.6.1.7 0 .2-.4.3-.4.3-.2.1-.5 0-.5-.2zm5.1-1.6l-.1.1h-.4-.1c-.1 0-.4.1-.5.1 0 0 .4 0 .6.2.1.1.4.1.4.1s-.4.3-1.2.2h-.2c-.4-.1-.7-.1-1.1-.1h.1c.1 0 .2.1.3.1h.2l.1.1V26c-.1.2-.3.2-.4 0 0 0-.1-.1-.1-.2-.1 0-.1-.1-.2-.1s-.3-.1-.4-.1H19c.1.1.2.2.3.2.1.1.1.2.1.4.1.2.2.3.3.4-.1 0-.7 0-1-.4v-.1c-.1-.2-.1-.3-.2-.4v-.3h-.1-.1-.1s-.1 0-.1-.1v-.1h-.2v-.1h-.2c-.1 0 0 0 0-.1h-.2-.2-.1v.1h-.1v.1H17v.1h-.1-.1-.1c-.1-.1-.2.2-.2.2-.4.8-1.3.9-1.3.9s.2-.1.3-.4c0-.2 0-.2.1-.4v-.1c0-.1.2-.1.2-.2h-.1c-.1 0-.2 0-.4.1-.1 0-.1.1-.2.1 0 0 0 .1-.1.2-.2.2-.3.2-.4 0v-.2s0-.1.1-.1c0 0 .1 0 .1-.1h.6c-.3 0-.6 0-1 .1h-.2c-.4.1-1.2-.1-1.2-.2 0 0 .2 0 .4-.2.2-.1.2-.2.4-.2.2.2.4.2.5.2-.1 0-.4-.1-.6-.1H13.4h-.2s-.1 0-.1-.1v-.2c0-.2.2-.2.4-.2.1 0 .2.1.2.1.1 0 .3.1.4.1.2.1.3.1.4.1h-.1-.1s-.1 0-.1-.1c-.2-.1-.5-.2-.6-.4-.1-.2-.2-.2-.2-.4 0-.4-.2-.5-.2-.6 0 0 .6.2.8.4.1.2.2.3.2.4 0 .1.2.2.4.4h.1c0-.1-.1-.1-.1-.2v-.1s0-.1-.1-.1v-.3s.1-.1.2-.1c.2 0 .3 0 .3.3v.2c.1.2.3.4.5.6-.3-.2-.4-.8-.4-.8s.3.1.5.2c.1 0 .2.1.4.2.1 0 .2.1.2.2.1 0 .1.1.2.2l.1.1.1.1h.4c0-.1 0-.1.1-.2l.1-.1h.3s0 .1.1.1v.2h.6v-.1-.1h.2l.1.1h.1c.1 0 .1.1.1.2h.4l.1-.1.2-.2c.1 0 .1-.1.2-.2s.3-.1.4-.2c.4-.2.4-.4.5-.4 0 0-.1.7-.4.9.2-.2.4-.4.5-.6v-.1-.1c.1-.2.2-.3.3-.3.1 0 .1.1.2.1v.3s0 .1-.1.1l-.1.1c0 .1-.1.1-.2.2l.1-.1.4-.4c0-.1.1-.2.2-.4.2-.2.2-.3.4-.4 0 0 .3-.1.4-.1 0 0-.2.1-.3.5 0 .1-.1.3-.2.5-.2.2-.3.2-.5.4 0 0-.1 0-.2.1-.1 0-.1.1-.2.1.1 0 .2-.1.4-.1.1-.1.3-.1.4-.1 0 0 .1-.1.2-.1.2-.1.4 0 .4.2s0 .3-.1.3z"></path> <path class="st0" d="M29.2 16.8c.6-.3 1.6-1 2-1.5-.6-.2-1.7-.3-2.3-.3 1.3-.9 1.4-2.9 1-4.3-.3 1.1-1.1 2.1-1.7 2.6 0 .6-.1 1.5-.4 2.1.4.2 1 .4 1.3.7-.2.3-.8.8-1.1 1.1.3.3.7.8 1 1.1-.3.2-1 .5-1.3.6.2.4.4 1 .5 1.4-.4.1-.9.1-1.5.1 0 .4 0 1.1-.1 1.5-.5 0-1.1-.2-1.4-.4-.2.6-.5 1.1-.5 1.2-.5-.6-1-.8-1.4-.8v-.4c.4 0 .9.2 1.3.5.2-.3.3-.8.4-1.1.3.2.8.4 1.3.4 0-.4.1-.9 0-1.3h1.5c-.1-.4-.4-1-.6-1.3.4-.1 1-.4 1.3-.5-.2-.3-.6-.8-.9-1.1.3-.2.8-.6 1.1-.9-.4-.2-.8-.5-1.3-.6.6-.8.7-2.3.6-3.1-.5 1.7-1.9 2.9-2.8 3.4l-.1.1s-.2.2-.1.5v.2c.1.3.1.8-.4 1.3-.4.4-.9.4-1.2.4v-.9c0-.1-.1-.2-.2-.2h-.6l-.5-.3h.6c.3 0 .7-.2.7-.2h-.5c-.2 0-.6-.2-1-.6-.1-.2-.2-.3-.3-.5-.3-.3-.7-.6-.9-1.2-.2-.4-.2-.9-.3-1.2l-.4.4c-.3.4-.4.9-.4.9l-.2.4-.2-.4s-.3-.5-.3-1.1v-.7c-.1 0-.2.1-.3.2-.5.4-.8.7-.8.7-.2.3-.4.6-.4.7 0-.2-.2-.4-.4-.7 0 0-.2-.4-.8-.7-.1-.1-.2-.2-.3-.2v.7c0 .6-.3 1.1-.3 1.1l-.3.4-.1-.4s-.2-.5-.4-.9c-.2-.2-.3-.4-.4-.4 0 .3-.1.9-.3 1.2-.2.5-.6.9-.9 1.2-.1.2-.2.3-.3.5-.4.4-.8.6-1 .6h-.5s.3.2.6.2h.6l-.3.3h-.6c-.1 0-.2.1-.2.2v.9c-.3 0-.8 0-1.2-.4-.4-.4-.5-.9-.4-1.3v-.2c.1-.2-.1-.4-.1-.5l-.1-.1c-.9-.6-2.3-1.8-2.8-3.4-.1.7 0 2.3.6 3.1-.4.2-.9.4-1.3.6.3.3.8.8 1.1 1-.3.2-.7.7-.9 1.1.3.2.8.4 1.3.5-.2.3-.5.9-.6 1.3.5.1 1 .1 1.5 0v1.3c.4-.1 1-.2 1.3-.4.1.3.2.8.4 1.1.4-.4.8-.5 1.3-.5v.4c-.4 0-.9.2-1.4.8 0 0-.4-.6-.5-1.2-.3.1-.9.4-1.4.4-.1-.4-.1-1.1-.1-1.5-.6 0-1.1 0-1.5-.1.1-.4.3-1.1.5-1.4-.4-.1-1-.4-1.3-.6.2-.3.7-.8 1-1.1-.3-.2-.8-.7-1.1-1.1.4-.3.9-.5 1.3-.7-.3-.6-.5-1.6-.4-2.1-.6-.6-1.4-1.5-1.7-2.6-.4 1.4-.3 3.4 1 4.3-.6 0-1.8.2-2.3.3.4.5 1.4 1.1 2 1.5-.5.2-1.3.6-1.7 1 .4.3 1.5.6 1.9.7-.3.2-.8.9-1.1 1.2.3 0 1.1.2 1.7.2-.2.4-.4 1-.4 1.3.2 0 1.1 0 1.5-.1v1.3c.4 0 1-.2 1.3-.3.1.3.4 1 .5 1.1.2 0 .4-.1.6-.2.6-.2 1.2 0 1.4.6.4.9.2 2-.5 1.8-.9.2-.3 1.3-.8 1.7.7.5.9-.6 1.8-.4-.1.4-.1 1.2 0 1.5.3-.2.7-.4.9-.4-.1.2-.1.8 0 1.2.2-.1 1.3-.4 1.3-.4s-.4.9-.2 1.8c.2.1 1.2-.4 1.2-.7 0 .4-.4 1.2-1.1 1.3.7.7 1.4.7 1.5.7.1 0 .2 0 .3-.1 0 .2-.1.5 0 .6h.1c.2 0 .4 0 .5-.1 0 .2.1.4.2.6l.1.1c.2 0 .6-.2.6-.3.1.1.5.3.6.3 0 0 .1 0 .1-.1.2-.2.2-.4.2-.6.2.1.3.1.5.1h.1v-.6c.1 0 .2.1.3.1s.7 0 1.5-.7c-.7-.2-1.1-1-1.1-1.3 0 .3 1.1.8 1.2.7.3-.9-.2-1.8-.2-1.8s1.1.3 1.3.4c.1-.4 0-.9 0-1.2.2 0 .6.2.9.4.1-.3.1-1.1 0-1.5.8-.2 1.1.9 1.8.4-.5-.4.1-1.5-.8-1.7-.8.2-.9-.9-.5-1.8.2-.5.9-.8 1.4-.6.2.1.4.1.6.2.1-.2.4-.8.5-1.1.3.1.9.3 1.3.3 0-.3.1-.9 0-1.3.4.1 1.3.1 1.5.1 0-.4-.2-1-.4-1.3.5 0 1.3-.1 1.7-.2-.2-.4-.8-1-1.1-1.2.5-.1 1.5-.4 1.9-.7-.1-.5-.9-1-1.4-1.1zm-6.5 9.1c0 .1-.1.1-.1.2v.1s-.1.1-.1.2l-.1.1c0 .1-.1.1-.2.2l-.1.1-.1.1-.2.2-.1.1c-.1.1-.3.2-.4.3-.2.2-.4.3-.6.4-.1 0-.2.1-.2.1-1.8.9-2.7 1.7-3 1.9-.3-.2-1.2-.9-3-1.9-.1 0-.2-.1-.2-.1-.2-.1-.4-.2-.6-.4-.2-.1-.3-.2-.4-.3 0 0-.1 0-.1-.1l-.2-.2-.1-.1-.1-.1-.2-.2-.1-.1s-.1-.1-.1-.2v-.1c-.4-.1-.4-.1-.4-.2-.2-.5-.2-1-.2-1v-7.1c0-.1.1-.2.2-.2h10.6c.1 0 .2.1.2.2v7.1c.1 0 .1.4-.1 1zM22.4 6.5c.2 0 .2-.1.2-.3 0-.2-.1-.3-.2-.3-.2 0-.2.1-.2.3 0 .1.1.3.2.3zM22.4 8c.2 0 .3-.7.3-1 0-.2-.2-.3-.3-.3-.2 0-.3.1-.3.3 0 .3.2 1 .3 1zM22.3 5.5h.3l-.1-.4h.5v-.4l-.5.1.1-.4h-.3v.4l-.4-.1v.4h.4z"></path> <path class="st0" d="M20.8 8.8c.1 0 .2 0 .4.1h.4c.3 0 .6-.1 1-.2.3-.1.6-.2 1-.2.1-.4.2-.8.2-1 0-.5-.3-1-1.2-1.2 0 .6-.3 2-.6 2s-.6-1.4-.6-2c-.9.2-1.2.7-1.2 1.2 0 .3.1.8.2 1.2.4 0 .4 0 .4.1zM25.7 6.2s-.2-.6.2-.8c.4-.2-.2-.1.2-1 .4-1.1 1.2-.8 1.2-.8-.6-.4-1-.4-1.3-.2-.2.2-.5.5-.7 1.1-.3.9 0 1.6.4 1.7z"></path> <path class="st0" d="M27.8 4.6c0 1.3 2.3 1.9 2.3 1.9s-1.3-.9-1.1-1.6c0 0 .8.4 1.8.2-2.1-.4-1.4-1.1-1.9-1.6-.5-.6-1.3-.6-1.5-.6-.5 0-.6 0-1.2.1 1.4 0 1.6.8 1.6 1.6zM27.5 7.2c.3-1.1-.2-1.5-.2-1.5-.2-.2-1-.2-1.3 0 0 0 .8 0 .7 1.2-.1 1.2-1.7 1.4-2.2 1.5v.2c.7-.2 2.7-.4 3-1.4zM19.1 7.1h-.8c.4 1.1 1.6 1.5 2.3 1.6v-.1c-.8-.3-1.2-.6-1.5-1.5zM12.4 6.5c.2 0 .2-.1.2-.3 0-.2-.1-.3-.2-.3-.2 0-.2.1-.2.3-.1.1 0 .3.2.3zM12.4 8c.2 0 .3-.7.3-1 0-.2-.2-.3-.3-.3s-.4.1-.4.3c0 .3.2 1 .4 1zM12.2 5.5h.3v-.4h.4v-.4l-.4.1v-.4h-.3v.4l-.4-.1v.4h.4z"></path> <path class="st0" d="M10.7 8.5h.2c.4 0 .7.1 1 .2.3.1.6.2 1 .2h.4c.1 0 .2 0 .4-.1.1-.4.2-.9.2-1.2 0-.5-.2-1-1.2-1.2 0 .6-.3 2-.6 2s-.6-1.4-.6-2c-.9.2-1.2.7-1.2 1.2.2.2.2.6.4.9zM7.5 3.6s.8-.2 1.2.8c.3.9-.3.8.2 1 .4.1.1.8.1.8.4-.1.7-.8.5-1.7-.2-.6-.5-.9-.7-1.1-.3-.2-.7-.2-1.3.2z"></path> <path class="st0" d="M5.7 4.9c.3.7-1 1.6-1 1.6S6.9 6 6.9 4.6C7 3.8 7.1 3 8.5 3c-.6-.1-.7-.1-1.2-.1-.2 0-1 .1-1.5.6s.1 1.2-1.9 1.6c1 .2 1.8-.2 1.8-.2zM8.2 6.8c-.2-1.1.6-1.1.6-1.1-.3-.2-1.1-.2-1.3 0 0 0-.5.4-.2 1.5s2.3 1.3 3.1 1.3v-.2c-.5-.1-2.1-.3-2.2-1.5zM16.5 7.1h-.8c-.3.9-.7 1.2-1.5 1.5v.1c.8-.1 1.9-.5 2.3-1.6zM18.4 12.1l-.6 1.2c.1-.2.3-.3.5-.5.4-.2.7-.4.7-.4l.3-.1-.1.3s-.1.5-.1 1c0 .2.1.4.1.5l.3-.6c.4-.5.7-.7.7-.7l.2-.1v.3s.1.9.3 1.4c.4.8 1.1 1.3 1.5 1.5l-.2-.2c-.2-.2-.4-.6-.5-1.3-.1-.6.2-1.3.2-1.5 0 .2.1.3.2.4V13c.1-.4.6-1.1 1.2-1.5.1-.1.2-.2.3-.2.1 0 .2-.1.3-.2h-.8c-.3 0-.7 0-1-.3-.3-.2-.4-.5-.4-.6H21c-.2 0-.4-.1-.6-.1-.3.2-.6.3-1.1.3h-.2c.1.1.3.2.4.3h-.1c.4-.2-.1.1-1 1.4zM23.7 9.8h-.4v.2c0 .1.1.2.2.3.1 0 .2-.2.2-.5z"></path> <path class="st0" d="M24 8.9h-.2c-.3 0-.6.1-1 .2-.3.1-.7.2-1 .2h-.2-.1-.2c-.7-.1-1.2-.3-1.5-.4 0 .1.1.2.2.3l.1.1c.1.1.2.2.3.2.2.1.8.4 1.7.2 1-.2 1.2-.1 1.5-.1h.1c.4 0 .9.2 1.1.4.1-.2.2-.4.2-.6 0 0-.1-.1-.3-.2 0 0-.1 0-.2-.1-.1 0-.2-.1-.4-.1.1-.1 0-.1-.1-.1zM26.9 12.2s-.4.2-1.2-.3c-.8-.5-1.3-.7-1.7-.8-.1 0-.1.1-.2.1s-.2.1-.3.2c0 0-.1 0-.1.1h.1c.7.1 1.3.5 1.3.6.1-.2 0-.4 0-.4s.3.2 1 .6c.7.5.9.1 1.1-.1z"></path> <path class="st0" d="M23 10.2s-.1-.1-.1-.2v-.2c-.2 0-.4 0-.6.1h-.2c.1.2.3.5.7.6h.7c.3 0 .6 0 .9-.1.1-.1.1-.2.2-.3h-.1c-.1 0-.3-.2-.4-.2 0 .1-.1.2-.2.3-.1.1-.3.1-.4.1-.2.1-.3 0-.5-.1 0 .1 0 0 0 0zM25.2 9.6c-.2.6-.6 1.1-.9 1.4 1.8-.5 2.1.4 2.1.5 0 0 .6-.7.2-1.3-.3-.5-1.1-.6-1.4-.6zm0 .5c.1-.1.1-.2.1-.2.1 0 .4 0 .4.2-.2-.1-.4-.1-.5 0zM11.5 10.1v-.2h-.4c0 .2.2.4.3.5 0-.1.1-.2.1-.3zM13.6 9.2c-.1 0-.1 0 0 0-.1 0-.1 0 0 0-.1 0-.1 0 0 0h-.2-.1H13c-.4 0-.7-.1-1-.2-.4 0-.7-.1-1-.1H10.7c-.2 0-.3 0-.4.1 0 0-.1 0-.2.1-.1 0-.2.1-.2.2 0 .2.2.4.2.6.2-.1.7-.4 1.1-.4h.1c.2 0 .4 0 1.5.1.9.1 1.5-.2 1.7-.2.1-.1.2-.2.3-.2l.1-.1c.1-.1.2-.2.2-.3-.3.1-.8.3-1.5.4zM7.9 12.2c.1.1.4.6 1.1.2.6-.4 1-.6 1-.6s-.1.2 0 .4c.1-.2.6-.6 1.3-.6h.1s-.1 0-.1-.1c-.1-.1-.2-.2-.3-.2-.1 0-.1-.1-.2-.1-.3 0-.9.3-1.7.8-.8.4-1.1.2-1.2.2z"></path> <path class="st0" d="M10.7 9.9c-.1 0-.3.2-.4.2h-.1c.1.1.1.2.2.3.3.1.6.1.9.1h.7c.4-.1.6-.4.7-.6h-.2c-.2 0-.4-.1-.6-.1v.2c0 .1-.1.1-.1.2-.1.1-.2.1-.4.1s-.3 0-.4-.1c-.3 0-.3-.1-.3-.3zM8.1 10.2c-.4.6.2 1.3.2 1.3s.3-1 2.1-.5c-.3-.2-.7-.7-.9-1.4-.2 0-1 .1-1.4.6zm1.5-.1c-.1-.1-.3-.1-.5 0 0-.2.2-.2.4-.2 0 0 0 .1.1.2z"></path> <path class="st0" d="M15.3 10.2h-.2c-.4 0-.7-.1-1.1-.3-.1 0-.4.1-.6.1h-.5c0 .2-.2.4-.4.6-.3.2-.6.3-1 .3h-.8c.1.1.2.1.3.2.1 0 .2.1.3.2.6.4 1.1 1.1 1.2 1.5v.3c.1 0 .2-.2.2-.4.1.2.4.8.2 1.5-.1.8-.3 1.1-.5 1.3l-.2.2c.4-.2 1.1-.6 1.5-1.5.2-.4.3-1.4.3-1.4v-.3l.2.1s.4.2.7.7l.3.6c0-.2.1-.3.1-.5 0-.5-.1-1-.1-1l-.1-.3.3.1s.3.1.7.4c.2.2.4.3.5.5-.2-.4-.3-.8-.6-1.2-.8-1.3-1.4-1.6-1.4-1.6h-.1c.5.1.7 0 .8-.1z"></path> </g> </switch> </svg> 